<svg width="183" height="183" viewBox="0 0 183 183" fill="none" xmlns="http://www.w3.org/2000/svg">
<path fill-rule="evenodd" clip-rule="evenodd" d="M24.7666 157.489C24.7815 151.487 28.1919 145.62 33.7468 139.052L1.62354 118.739C-0.401854 117.86 -0.357176 116.624 0.819338 115.164L7.62525 109.356C8.86133 108.597 10.1719 108.269 11.5867 108.656L51.2307 115.358L84.2625 79.586L7.14868 27.4173C5.19776 26.2705 5.03394 24.9749 7.04444 23.4707L18.1692 14.5948L118.694 42.846L148.39 11.095C158.353 2.4722 168.033 -1.38498 175.465 0.446812C179.56 1.45951 181.005 2.6807 182.271 6.52298C184.728 14.0586 180.915 24.1856 171.905 34.6104L140.154 64.3062L168.406 164.831L159.53 175.956C158.025 177.951 156.73 177.788 155.583 175.852L103.399 98.7527L67.6274 131.77L74.3291 171.414C74.7163 172.814 74.4036 174.124 73.6292 175.375L67.821 182.181C66.3765 183.357 65.1255 183.402 64.2468 181.377L43.9333 149.253C37.3359 154.823 31.4683 158.234 25.4368 158.234C24.8857 158.219 24.7666 158.025 24.7666 157.489Z" fill="#EF3139"/>
</svg>
