<svg width="158" height="158" viewBox="0 0 158 158" fill="none" xmlns="http://www.w3.org/2000/svg">
<g clip-path="url(#clip0_38_95)">
<path d="M39.5 0.00329591C38.1163 0.00324005 36.7461 0.275573 35.4677 0.804743C34.1893 1.33391 33.0277 2.10956 32.0493 3.08739C31.0708 4.06522 30.2947 5.22609 29.7651 6.5037C29.2356 7.78132 28.9631 9.15066 28.9631 10.5335V18.5986H10.5364C7.74205 18.5989 5.06222 19.7085 3.08631 21.6832C1.11041 23.658 0.000253996 26.3362 0 29.1289V147.47C0.000253597 150.263 1.11041 152.941 3.08631 154.916C5.06222 156.89 7.74205 158 10.5364 158H147.463C150.258 158 152.937 156.891 154.913 154.916C156.89 152.941 158 150.263 158 147.47V29.1289C158 26.3361 156.89 23.6578 154.913 21.683C152.937 19.7083 150.258 18.5988 147.463 18.5986H129.036V10.5335C129.036 9.1507 128.764 7.7814 128.234 6.50382C127.705 5.22624 126.929 4.0654 125.95 3.08757C124.972 2.10975 123.81 1.33409 122.532 0.804891C121.254 0.27569 119.884 0.00330749 118.5 0.00329591C117.116 0.00324005 115.746 0.275573 114.468 0.804743C113.189 1.33391 112.028 2.10956 111.049 3.08739C110.071 4.06522 109.295 5.22609 108.765 6.5037C108.236 7.78132 107.963 9.15066 107.963 10.5335V18.5986H89.5364V10.5335C89.5364 9.1507 89.2639 7.7814 88.7344 6.50382C88.2049 5.22624 87.4288 4.0654 86.4504 3.08757C85.472 2.10975 84.3105 1.33409 83.0321 0.804891C81.7538 0.27569 80.3837 0.00330749 79 0.00329591C77.6163 0.00323973 76.2461 0.275572 74.9677 0.804743C73.6893 1.33391 72.5277 2.10956 71.5492 3.08739C70.5708 4.06522 69.7946 5.22609 69.2651 6.5037C68.7356 7.78132 68.463 9.15066 68.4631 10.5335V18.5986H50.0364V10.5335C50.0364 9.1507 49.7639 7.7814 49.2344 6.50382C48.7049 5.22624 47.9288 4.0654 46.9504 3.08757C45.972 2.10975 44.8105 1.33409 43.5321 0.804891C42.2538 0.27569 40.8837 0.00330749 39.5 0.00329591ZM21.0728 60.0371H136.927V136.94H21.0728V60.0371Z" fill="#EF3139"/>
<path d="M101.384 69.7839C100.685 69.784 100.015 70.0615 99.5214 70.5552C99.0274 71.049 98.7499 71.7186 98.75 72.4168V91.5647C98.7501 92.2628 99.0276 92.9323 99.5216 93.426C100.016 93.9196 100.685 94.197 101.384 94.1971H125.082C125.781 94.197 126.451 93.9196 126.945 93.426C127.439 92.9323 127.716 92.2628 127.716 91.5647V72.4168C127.717 71.7186 127.439 71.049 126.945 70.5552C126.451 70.0615 125.781 69.784 125.082 69.7839H101.384ZM104.018 75.0492H122.449V88.9318H104.018V75.0492Z" fill="#EF3139"/>
<path d="M67.1509 69.7839C65.6959 69.7839 64.5164 70.9627 64.5164 72.4168V91.5647C64.5167 93.0186 65.6961 94.1971 67.1509 94.1971H90.849C92.3038 94.1971 93.4832 93.0186 93.4834 91.5647V72.4168C93.4835 70.9627 92.304 69.7839 90.849 69.7839H67.1509Z" fill="#EF3139"/>
<path d="M32.9178 69.4265C31.4628 69.4265 30.2833 70.6053 30.2833 72.0594V91.2073C30.2836 92.6612 31.463 93.8397 32.9178 93.8397H56.6158C58.0707 93.8397 59.2501 92.6612 59.2503 91.2073V72.0594C59.2504 70.6053 58.0708 69.4265 56.6158 69.4265H32.9178Z" fill="#EF3139"/>
<path d="M67.151 101.987C65.696 101.987 64.5164 103.166 64.5165 104.62V123.768C64.5167 125.221 65.6962 126.4 67.151 126.4H90.849C92.3038 126.4 93.4833 125.221 93.4835 123.768V104.62C93.4835 103.166 92.304 101.987 90.849 101.987H67.151Z" fill="#EF3139"/>
<path d="M101.384 102.343C99.9291 102.343 98.7496 103.522 98.7497 104.976V124.124C98.7499 125.578 99.9293 126.756 101.384 126.756H125.082C126.537 126.756 127.716 125.578 127.717 124.124V104.976C127.717 103.522 126.537 102.343 125.082 102.343H101.384Z" fill="#EF3139"/>
<path d="M32.9179 101.63C31.4629 101.629 30.2833 102.808 30.2834 104.262V123.41C30.2836 124.864 31.4631 126.043 32.9179 126.043H56.6159C58.0707 126.043 59.2502 124.864 59.2504 123.41V104.262C59.2504 102.808 58.0709 101.629 56.6159 101.63H32.9179Z" fill="#EF3139"/>
</g>
<defs>
<clipPath id="clip0_38_95">
<rect width="158" height="158" fill="white"/>
</clipPath>
</defs>
</svg>
