<svg width="172" height="172" viewBox="0 0 172 172" fill="none" xmlns="http://www.w3.org/2000/svg">
<g clip-path="url(#clip0_38_106)">
<path d="M102.125 146.617V145.126C102.125 133.271 92.4781 123.625 80.6228 123.625H26.8715C15.0162 123.625 5.37402 133.271 5.37402 145.126V146.619C-0.00100791 148.482 1.41655e-10 151.908 1.41655e-10 155.876C1.41655e-10 161.812 4.812 166.625 10.7487 166.625H96.7509C102.688 166.625 107.502 161.812 107.502 155.876C107.502 151.906 107.5 148.479 102.125 146.617Z" fill="#EF3139"/>
<path d="M161.25 42.9999H75.2494V32.2488C80.6245 32.2488 85.9995 27.4354 85.9995 21.4984V16.1234C85.9995 10.1866 81.1845 5.37463 75.2477 5.37463H32.2465C26.3098 5.37463 21.4991 10.1866 21.4991 16.1234V21.4984C21.4991 27.4351 26.8741 32.2488 32.2492 32.2488V75.25C26.8741 75.25 21.4991 80.0634 21.4991 86.0004V91.3755C21.4991 97.3122 26.3098 102.126 32.2465 102.126H75.2477C81.1845 102.126 85.9995 97.3122 85.9995 91.3755V86.0004C85.9995 80.0637 80.6245 75.25 75.2494 75.25V64.5003H161.25C167.187 64.5003 172 59.687 172 53.7503C172 47.8135 167.187 42.9999 161.25 42.9999Z" fill="#EF3139"/>
</g>
<defs>
<clipPath id="clip0_38_106">
<rect width="172" height="172" fill="white"/>
</clipPath>
</defs>
</svg>
