<svg width="196" height="154" viewBox="0 0 196 154" fill="none" xmlns="http://www.w3.org/2000/svg">
<path d="M180.859 64.9215H142.321L116.155 33.1695C116.13 33.145 116.106 33.096 116.057 33.0715C113.68 30.45 110.47 28.7595 107.016 28.2695V15.652C107.016 8.98799 101.602 3.57349 94.9375 3.57349H82.467V3.37749C82.467 1.78499 81.1685 0.510986 79.6005 0.510986C78.008 0.510986 76.734 1.80949 76.734 3.37749V3.57349H61.005V3.37749C61.005 1.78499 59.7065 0.510986 58.1385 0.510986C56.546 0.510986 55.272 1.80949 55.272 3.37749V3.57349H42.8015C36.1375 3.57349 30.723 8.98799 30.723 15.652V28.1225C25.676 28.2695 21.0455 30.8665 18.326 35.154C18.3015 35.203 18.277 35.2275 18.2525 35.2765L2.3275 63.3045C0.8085 65.73 0 68.4985 0 71.365V104.611C0 110.467 3.4545 115.857 8.82 118.331C9.5795 118.699 10.486 118.674 11.2455 118.331C11.956 118.013 12.4705 117.4 12.74 116.69H15.729C13.5485 120.34 12.2745 124.603 12.2745 129.16C12.2745 142.586 23.2015 153.513 36.6275 153.513C50.0535 153.513 60.9805 142.586 60.9805 129.16C60.9805 124.603 59.731 120.34 57.526 116.69H60.515C60.5885 116.959 60.662 117.229 60.711 117.523C61.005 118.821 62.181 119.752 63.504 119.752H132.423C133.77 119.752 134.922 118.821 135.216 117.523C135.289 117.253 135.338 116.959 135.412 116.69H138.401C136.22 120.34 134.946 124.603 134.946 129.16C134.946 142.586 145.873 153.513 159.299 153.513C172.725 153.513 183.652 142.586 183.652 129.16C183.652 124.603 182.403 120.34 180.198 116.69H183.26C183.334 116.959 183.407 117.229 183.456 117.523C183.75 118.821 184.926 119.752 186.249 119.752H186.959C191.933 119.752 195.976 115.71 195.976 110.736V80.0625C196 71.708 189.214 64.9215 180.859 64.9215ZM190.243 89.4705H186.984C185.196 89.4705 183.726 88.0005 183.726 86.212C183.726 84.4235 185.196 82.9535 186.984 82.9535H190.243V89.4705ZM116.816 43.0185L134.848 64.9215H44.5165L53.9245 47.404C55.664 44.6845 58.6285 43.043 61.8625 43.043H116.424C116.547 43.043 116.693 43.043 116.816 43.0185ZM94.9375 9.30649C98.4165 9.30649 101.258 12.1485 101.258 15.6275V28.098H82.467V9.30649H94.9375ZM76.7095 9.30649V28.098H60.9805V9.30649H76.7095ZM42.777 9.30649H55.2475V28.098H36.456V15.6275C36.4315 12.1485 39.2735 9.30649 42.777 9.30649ZM20.482 42.945C20.727 43.0185 20.9965 43.0675 21.2905 43.0675H34.888L25.48 60.5605C23.7405 63.28 20.776 64.897 17.542 64.897H8.0115L20.482 42.945ZM36.6275 147.756C26.362 147.756 18.032 139.401 18.032 129.16C18.032 118.919 26.3865 110.565 36.6275 110.565C46.8685 110.565 55.223 118.919 55.223 129.16C55.223 139.401 46.893 147.756 36.6275 147.756ZM52.773 110.957C48.461 107.135 42.826 104.832 36.6275 104.832C30.429 104.832 24.794 107.159 20.482 110.957H15.0675C19.355 103.288 27.5625 98.2905 36.6275 98.2905C42.336 98.2905 47.726 100.177 52.1605 103.778C54.6105 105.763 56.6685 108.213 58.1875 110.957H52.773ZM159.373 147.756C149.107 147.756 140.777 139.401 140.777 129.16C140.777 118.919 149.132 110.565 159.373 110.565C169.638 110.565 177.968 118.919 177.968 129.16C177.968 139.401 169.638 147.756 159.373 147.756ZM175.518 110.957C171.206 107.135 165.571 104.832 159.373 104.832C153.174 104.832 147.539 107.159 143.227 110.957H137.813C139.356 108.213 141.389 105.787 143.839 103.778C148.274 100.177 153.64 98.2905 159.373 98.2905C165.081 98.2905 170.471 100.177 174.906 103.778C177.356 105.763 179.414 108.213 180.933 110.957H175.518ZM188.381 113.701C186.568 108.09 183.137 103.043 178.507 99.3195C173.117 94.9585 166.306 92.5575 159.373 92.5575C152.415 92.5575 145.628 94.9585 140.238 99.3195C135.534 103.117 132.055 108.286 130.267 114.019H65.7335C63.945 108.286 60.466 103.117 55.762 99.3195C50.372 94.9585 43.561 92.5575 36.6275 92.5575C24.2795 92.5575 13.2055 100.079 8.526 111.275C6.7865 109.536 5.7575 107.159 5.7575 104.636V82.9535H153.248C154.84 82.9535 156.114 81.655 156.114 80.087C156.114 78.519 154.816 77.2205 153.248 77.2205L5.7575 71.365C5.7575 71.12 5.7575 70.8995 5.782 70.6545C5.831 70.6545 5.88 70.6545 5.9535 70.6545H17.5665C22.834 70.6545 27.636 67.984 30.429 63.525C30.4535 63.476 30.5025 63.427 30.527 63.3535L42.2625 41.4995C42.7525 40.6175 42.728 39.5395 42.189 38.6575C41.6745 37.8 40.7435 37.261 39.7145 37.261H23.814C25.6025 35.0805 28.2485 33.8065 31.115 33.8065H104.811C107.432 33.8065 109.956 34.909 111.745 36.8445L112.088 37.261H61.8625C56.595 37.261 51.793 39.9315 49 44.3905C48.9755 44.4395 48.9265 44.4885 48.902 44.562L37.1665 66.3915C36.6765 67.2735 36.701 68.3515 37.24 69.2335C37.7545 70.091 38.6855 70.63 39.7145 70.63H140.973H180.859C185.049 70.63 188.577 73.374 189.802 77.147H186.984C182.011 77.147 177.968 81.1895 177.968 86.163C177.968 91.1365 182.011 95.179 186.984 95.179H190.243V110.712C190.243 112.035 189.483 113.162 188.381 113.701Z" fill="#EF3139"/>
</svg>
